<svg xmlns="http://www.w3.org/2000/svg" xml:space="preserve" width="977.57483" height="477.80505" viewBox="0 0 977.57483 477.80505"><path d="M150.702 170.976c-3.616-8.38-5.588-13.312-5.588-13.312H29.41l6.41 13.312zm11.176 26.789-6.081-14.298H42.065l6.903 14.298zm11.176 26.625-5.916-14.133H55.048l6.904 14.133zm52.758-53.414v-13.312h-44.704l6.574 13.312zm0 26.789v-14.298h-32.048l7.065 14.298zm0 26.625v-14.133H206.91l6.904 14.133zm0 24.655-5.918-11.998h5.918zM87.59 344.862l12.163 19.558s.657 4.767 6.08 4.767h111.432s4.603.329 8.547-.822v-21.367c-9.04-19.392-29.42-67.22-47.498-109.951H68.197l52.429 107.322zm138.222-107.815h104.364c21.2 50.62 46.019 108.637 50.949 117.512 9.204 16.436-12.162 14.628-12.162 14.628H257.696c-5.424 0-6.082-4.767-6.082-4.767l-12.326-19.558 33.036-.493-46.512-95.324zm0-26.79v14.133h99.105l-6.081-14.133zm0-26.79v14.298h87.764l-5.916-14.298zm0-25.803v13.312H302.4c-3.451-8.38-5.588-13.312-5.588-13.312zm339.882 13.312V156.84l-139.536.66 12.163 13.475zm0 26.789v-14.298H449.66l12.985 14.298zm0 26.625v-14.133h-91.546l12.985 14.133zm0 263.953v-87.765c-39.61-14.3-53.743-44.704-53.743-44.704-10.028-40.266 40.43-28.597 40.43-28.597v-28.432l10.19 11.01 3.123 3.454v-76.262h-67.221l8.546 9.2s-118.005-4.268-105.35 76.097c9.368 60.155 75.603 128.69 164.025 165.999M225.812 368.365c4.766-1.315 8.71-4.931 3.78-13.806-.822-1.314-2.137-3.945-3.78-7.561zm339.882-158.108v14.133h71.165l-9.205-14.133zm0-26.79v14.298h53.744l-9.205-14.298zm0-26.626v14.135h36.323l-9.205-14.3zm196.894 294.357v-.985c-.163-9.697-1.808-20.71-5.423-33.364 0 0-15.283-33.528-36.323-62.783l-75.93-117.02h-79.218v76.263l39.773 44.208c10.189 9.204 15.12 24.159 15.12 24.159 4.274 30.078-28.594 25.147-28.594 25.147-9.698-1.314-18.575-3.451-26.3-6.245v87.765c29.75 12.49 61.96 21.529 95.325 25.474 0 0 102.228 15.284 101.57-62.62" style="fill:#c9242b;fill-opacity:1;fill-rule:evenodd;stroke:none" transform="matrix(1.33333 0 0 -1.33333 -39.213 686.707)"/></svg>